<?xml version="1.0" standalone="no"?>
<!DOCTYPE svg PUBLIC "-//W3C//DTD SVG 20010904//EN"
 "http://www.w3.org/TR/2001/REC-SVG-20010904/DTD/svg10.dtd">
<svg version="1.0" xmlns="http://www.w3.org/2000/svg"
 width="256.000000pt" height="256.000000pt" viewBox="0 0 256.000000 256.000000"
 preserveAspectRatio="xMidYMid meet">

<g transform="translate(0.000000,256.000000) scale(0.100000,-0.100000)"
fill="#000000" stroke="none">
<path d="M1311 2026 c-5 -13 -39 -117 -76 -232 -37 -115 -73 -224 -81 -242 -8
-18 -14 -38 -14 -44 0 -6 -27 -95 -61 -197 l-61 -187 -91 -29 c-51 -15 -125
-43 -166 -61 -41 -19 -76 -33 -77 -31 -2 2 25 91 60 198 78 241 183 567 203
634 8 28 26 82 39 122 13 39 24 74 24 77 0 3 -80 6 -179 6 l-178 0 -31 -87
c-17 -49 -56 -169 -87 -268 -31 -99 -60 -191 -65 -205 -4 -14 -24 -74 -43
-135 -19 -60 -60 -186 -90 -280 -30 -93 -78 -244 -107 -335 -28 -91 -56 -178
-61 -194 -5 -16 -9 -33 -9 -37 0 -5 79 -9 176 -9 l177 0 83 80 c99 95 289 222
306 205 2 -3 -12 -55 -32 -117 -20 -62 -40 -125 -44 -141 l-6 -27 181 2 182 3
40 125 c21 69 47 150 56 180 l18 55 99 -2 c86 -1 115 -7 219 -41 156 -51 267
-118 389 -233 l94 -89 166 0 167 0 -41 78 c-78 151 -208 288 -370 388 -133 83
-347 161 -492 178 -88 10 -128 20 -128 31 0 6 9 38 19 71 10 32 49 154 86 269
75 237 81 254 134 417 21 65 36 120 33 123 -3 3 -83 5 -179 5 -173 0 -174 0
-182 -24z"/>
<path d="M1852 2038 c-7 -7 -12 -17 -12 -24 0 -6 -16 -60 -35 -118 -19 -59
-35 -111 -35 -117 0 -5 53 -9 125 -9 75 0 125 -4 125 -10 0 -5 -16 -57 -35
-114 -19 -58 -35 -107 -35 -110 0 -4 65 -6 144 -6 l144 0 56 168 c31 92 69
205 85 252 16 46 27 88 25 92 -9 14 -538 10 -552 -4z"/>
</g>
</svg>
