<svg width="256" height="256" xmlns="http://www.w3.org/2000/svg" preserveAspectRatio="xMidYMid meet" version="1.0" overflow = "visible">
  <g fill="#000000" transform="translate(0 256) scale(0.1 -0.1)" >
    
    <!-- 左下角主体 -->
    <g id="logo-body">
      <path fill="#ffffff" d="m1311,2026c-5,-13 -39,-117 -76,-232c-37,-115 -73,-224 -81,-242c-8,-18 -14,-38 -14,-44c0,-6 -27,-95 -61,-197l-61,-187l-91,-29c-51,-15 -125,-43 -166,-61c-41,-19 -76,-33 -77,-31c-2,2 25,91 60,198c78,241 183,567 203,634c8,28 26,82 39,122c13,39 24,74 24,77c0,3 -80,6 -179,6l-178,0l-31,-87c-17,-49 -56,-169 -87,-268c-31,-99 -60,-191 -65,-205c-4,-14 -24,-74 -43,-135c-19,-60 -60,-186 -90,-280c-30,-93 -78,-244 -107,-335c-28,-91 -56,-178 -61,-194c-5,-16 -9,-33 -9,-37c0,-5 79,-9 176,-9l177,0l83,80c99,95 289,222 306,205c2,-3 -12,-55 -32,-117c-20,-62 -40,-125 -44,-141l-6,-27l181,2l182,3l40,125c21,69 47,150 56,180l18,55l99,-2c86,-1 115,-7 219,-41c156,-51 267,-118 389,-233l94,-89l166,0l167,0l-41,78c-78,151 -208,288 -370,388c-133,83 -347,161 -492,178c-88,10 -128,20 -128,31c0,6 9,38 19,71c10,32 49,154 86,269c75,237 81,254 134,417c21,65 36,120 33,123c-3,3 -83,5 -179,5c-173,0 -174,0 -182,-24z"/>
    </g>

    <!-- 右上角尖角 -->
    <g id="logo-handle">
      <path fill="#ffffff" d="m1852,2038c-7,-7 -12,-17 -12,-24c0,-6 -16,-60 -35,-118c-19,-59 -35,-111 -35,-117c0,-5 53,-9 125,-9c75,0 125,-4 125,-10c0,-5 -16,-57 -35,-114c-19,-58 -35,-107 -35,-110c0,-4 65,-6 144,-6l144,0l56,168c31,92 69,205 85,252c16,46 27,88 25,92c-9,14 -538,10 -552,-4z"/>
    </g>

  </g>
</svg>
